<?xml version="1.0" encoding="UTF-8"?>
<svg width="320px" height="320px" viewBox="0 0 320 320" version="1.1" xmlns="http://www.w3.org/2000/svg" xmlns:xlink="http://www.w3.org/1999/xlink">
    <title>product_logo copy 3</title>
    <g id="product_logo-copy-3" stroke="none" stroke-width="1" fill="none" fill-rule="evenodd">
        <rect fill="#FAFAFA" x="0" y="0" width="320" height="320"></rect>
        <polygon id="Rectangle" fill="#5856D6" points="126.381561 120.878443 199 149 198.974292 202.842647 119.743484 173.751027"></polygon>
        <path d="M40.434608,147.388108 C75.2834133,129.714998 101.706694,120.878443 119.70445,120.878443 C137.702206,120.878443 164.125487,129.714998 198.974292,147.388108 L198.974292,279.569567 C163.79942,261.453899 137.376139,252.396064 119.70445,252.396064 C102.032761,252.396064 75.6094806,261.453899 40.434608,279.569567 L40.434608,147.388108 Z" id="Path-7" stroke="#323232" stroke-width="16" stroke-linejoin="round"></path>
        <path d="M119.743484,68.0792326 C154.592289,50.4061224 181.01557,41.5695673 199.013326,41.5695673 C217.011082,41.5695673 243.434363,50.4061224 278.283168,68.0792326 L278.283168,200.260692 C243.108295,182.145023 216.685015,173.087189 199.013326,173.087189 C181.341637,173.087189 154.918356,182.145023 119.743484,200.260692 L119.743484,68.0792326 Z" id="Path-7-Copy" stroke="#323232" stroke-width="16" stroke-linejoin="round" transform="translate(199.013326, 120.915130) scale(1, -1) translate(-199.013326, -120.915130) "></path>
    </g>
</svg>